<svg width="28" height="24" viewBox="0 0 28 24" fill="none" xmlns="http://www.w3.org/2000/svg">
<path d="M12.202 23.9766L9.53347 23.1469C9.2535 23.0625 9.09601 22.7484 9.17475 22.4484L15.1462 0.406101C15.2249 0.106078 15.518 -0.0626848 15.798 0.0216966L18.4665 0.851447C18.7465 0.935828 18.904 1.24991 18.8252 1.54994L12.8538 23.5922C12.7707 23.8922 12.482 24.0657 12.202 23.9766ZM7.2149 18.7169L9.11788 16.5417C9.31912 16.312 9.30599 15.9463 9.08288 15.7354L5.11944 11.9992L9.08288 8.26294C9.30599 8.05199 9.32349 7.68634 9.11788 7.45663L7.2149 5.28147C7.01804 5.05645 6.68557 5.04239 6.47121 5.25803L0.167331 11.5866C-0.0557769 11.807 -0.0557769 12.1867 0.167331 12.407L6.47121 18.7403C6.68557 18.9559 7.01804 18.9466 7.2149 18.7169ZM21.5288 18.745L27.8327 12.4117C28.0558 12.1914 28.0558 11.8116 27.8327 11.5913L21.5288 5.25334C21.3188 5.04239 20.9863 5.05176 20.7851 5.27678L18.8821 7.45194C18.6809 7.68165 18.694 8.0473 18.9171 8.25825L22.8806 11.9992L18.9171 15.7354C18.694 15.9463 18.6765 16.312 18.8821 16.5417L20.7851 18.7169C20.982 18.9466 21.3144 18.9559 21.5288 18.745Z" fill="#40E0D0"/>
</svg>
