<svg width="29" height="22" viewBox="0 0 29 22" fill="none" xmlns="http://www.w3.org/2000/svg">
<path d="M13.7399 5.76081L4.77812 13.1432V21.111C4.77812 21.3173 4.86006 21.5152 5.00591 21.661C5.15176 21.8069 5.34957 21.8889 5.55584 21.8889L11.0028 21.8748C11.2084 21.8737 11.4052 21.7913 11.5502 21.6456C11.6952 21.4998 11.7766 21.3025 11.7766 21.0969V16.4438C11.7766 16.2375 11.8585 16.0397 12.0044 15.8938C12.1502 15.7479 12.3481 15.6659 12.5543 15.6659H15.6652C15.8715 15.6659 16.0693 15.7479 16.2151 15.8938C16.361 16.0397 16.4429 16.2375 16.4429 16.4438V21.0935C16.4426 21.1959 16.4625 21.2973 16.5014 21.3919C16.5404 21.4866 16.5976 21.5726 16.6698 21.6451C16.7421 21.7176 16.8279 21.7751 16.9225 21.8143C17.017 21.8536 17.1183 21.8738 17.2206 21.8738L22.6656 21.8889C22.8719 21.8889 23.0697 21.8069 23.2156 21.661C23.3614 21.5152 23.4433 21.3173 23.4433 21.111V13.1379L14.4836 5.76081C14.3782 5.67589 14.247 5.62958 14.1117 5.62958C13.9764 5.62958 13.8452 5.67589 13.7399 5.76081ZM27.8958 10.7785L23.8322 7.42836V0.694482C23.8322 0.539756 23.7708 0.391366 23.6614 0.281958C23.552 0.172549 23.4036 0.111084 23.2489 0.111084H20.5269C20.3722 0.111084 20.2238 0.172549 20.1145 0.281958C20.0051 0.391366 19.9436 0.539756 19.9436 0.694482V4.22453L15.5918 0.643435C15.1742 0.299706 14.6501 0.111771 14.1093 0.111771C13.5684 0.111771 13.0444 0.299706 12.6268 0.643435L0.322768 10.7785C0.263704 10.8274 0.214838 10.8873 0.178962 10.9551C0.143086 11.0228 0.120903 11.0969 0.113681 11.1732C0.106458 11.2495 0.114338 11.3265 0.13687 11.3997C0.159402 11.473 0.196144 11.5411 0.244997 11.6001L1.48448 13.1073C1.5332 13.1665 1.59313 13.2156 1.66083 13.2516C1.72853 13.2877 1.80268 13.31 1.87903 13.3174C1.95537 13.3248 2.03242 13.317 2.10576 13.2945C2.17911 13.2721 2.2473 13.2354 2.30644 13.1865L13.7399 3.76753C13.8452 3.68261 13.9764 3.6363 14.1117 3.6363C14.247 3.6363 14.3782 3.68261 14.4836 3.76753L25.9175 13.1865C25.9765 13.2354 26.0446 13.2721 26.1178 13.2946C26.1911 13.3172 26.268 13.3251 26.3443 13.3178C26.4206 13.3106 26.4947 13.2884 26.5624 13.2525C26.6301 13.2167 26.6901 13.1678 26.7389 13.1087L27.9784 11.6016C28.0272 11.5422 28.0638 11.4738 28.0861 11.4002C28.1083 11.3266 28.1158 11.2494 28.1082 11.1729C28.1005 11.0964 28.0778 11.0222 28.0413 10.9545C28.0049 10.8868 27.9554 10.827 27.8958 10.7785Z" fill="#F5F5DC"/>
</svg>
