<svg width="17" height="16" viewBox="0 0 17 16" fill="none" xmlns="http://www.w3.org/2000/svg">
<path d="M16.2682 8C16.2682 12.4193 12.7662 16 8.44696 16C4.12772 16 0.625732 12.4193 0.625732 8C0.625732 3.58332 4.12772 0 8.44696 0C12.7662 0 16.2682 3.58332 16.2682 8ZM8.65684 2.64516C6.93816 2.64516 5.84199 3.38571 4.98121 4.70187C4.8697 4.87239 4.907 5.10236 5.06683 5.22632L6.16114 6.07503C6.3253 6.20235 6.55918 6.17206 6.68671 6.00658C7.25009 5.27568 7.63639 4.85184 8.49389 4.85184C9.13816 4.85184 9.93508 5.27597 9.93508 5.915C9.93508 6.3981 9.54518 6.64619 8.90905 7.011C8.16716 7.43639 7.18547 7.96584 7.18547 9.29032V9.41935C7.18547 9.63313 7.35492 9.80645 7.56392 9.80645H9.33C9.539 9.80645 9.70845 9.63313 9.70845 9.41935V9.37635C9.70845 8.45823 12.3319 8.42 12.3319 5.93548C12.3319 4.06445 10.4345 2.64516 8.65684 2.64516ZM8.44696 10.6452C7.64702 10.6452 6.99625 11.3108 6.99625 12.129C6.99625 12.9472 7.64702 13.6129 8.44696 13.6129C9.2469 13.6129 9.89767 12.9472 9.89767 12.129C9.89767 11.3108 9.2469 10.6452 8.44696 10.6452Z" fill="#F5F5DC"/>
</svg>
