<svg width="76" height="75" viewBox="0 0 76 75" fill="none" xmlns="http://www.w3.org/2000/svg">
<path d="M55.4554 0C53.7637 0.0942849 52.072 0.282855 50.4742 0.848564C47.9366 1.79141 45.493 3.20569 43.4254 5.27995C42.8304 5.65829 42.3279 6.16596 41.9549 6.76541C41.582 7.36485 41.3481 8.04075 41.2706 8.7431C41.1931 9.44545 41.2741 10.1563 41.5074 10.823C41.7407 11.4898 42.1204 12.0954 42.6185 12.5951C43.1166 13.0947 43.7202 13.4757 44.3849 13.7097C45.0495 13.9438 45.7581 14.025 46.4582 13.9472C47.1583 13.8695 47.8321 13.6349 48.4296 13.2607C49.0271 12.8866 49.5332 12.3824 49.9103 11.7856C50.9442 10.7485 52.166 10.1828 53.4818 9.71134C56.7712 8.57993 60.8126 9.05135 63.4442 11.7856C67.1096 15.4627 67.1096 21.5912 63.4442 25.3626L49.3464 39.5054C45.2111 43.6539 41.8276 44.031 39.384 43.9368C36.9404 43.8425 35.5306 42.7111 35.5306 42.7111C34.9876 42.4015 34.389 42.2023 33.7692 42.1248C33.1494 42.0473 32.5205 42.093 31.9183 42.2594C31.3161 42.4257 30.7525 42.7094 30.2596 43.0943C29.7667 43.4792 29.3542 43.9577 29.0457 44.5025C28.7371 45.0473 28.5385 45.6477 28.4613 46.2695C28.384 46.8913 28.4296 47.5222 28.5954 48.1263C28.7613 48.7304 29.0441 49.2958 29.4277 49.7903C29.8113 50.2848 30.2883 50.6986 30.8314 51.0081C30.8314 51.0081 34.0269 53.0824 38.7261 53.3652C43.4254 53.6481 50.0043 51.8567 55.7374 46.011L69.8351 31.8683C77.166 24.5141 77.166 12.6342 69.8351 5.37424C67.2036 2.73426 64.1021 1.13142 60.7186 0.37714C59.0269 0 57.1472 0 55.4554 0.0942849V0ZM36.6584 21.7798C31.9592 21.5912 25.4742 23.1941 19.9291 28.8512L5.83137 42.9939C-1.49945 50.3481 -1.49945 62.228 5.83137 69.488C11.0945 74.7679 18.6133 76.2765 25.1923 73.9194C27.7299 72.9765 30.1735 71.5622 32.2411 69.488C32.8361 69.1096 33.3386 68.602 33.7116 68.0025C34.0845 67.4031 34.3184 66.7272 34.3959 66.0248C34.4734 65.3225 34.3925 64.6116 34.1591 63.9449C33.9258 63.2781 33.5461 62.6725 33.048 62.1729C32.5499 61.6732 31.9463 61.2922 31.2816 61.0582C30.617 60.8241 29.9084 60.743 29.2083 60.8207C28.5082 60.8984 27.8345 61.133 27.2369 61.5072C26.6394 61.8814 26.1333 62.3855 25.7562 62.9823C24.7223 64.0194 23.5005 64.5852 22.1848 65.0566C18.8953 66.188 14.8539 65.7166 12.2223 62.9823C8.55694 59.3052 8.55694 53.1767 12.2223 49.4053L26.3201 35.2626C30.0795 31.4912 33.369 31.0197 36.0005 31.114C38.6321 31.2083 40.4178 31.9626 40.4178 31.9626C40.9685 32.3769 41.6031 32.6648 42.2769 32.8059C42.9507 32.947 43.6472 32.938 44.3171 32.7793C44.987 32.6207 45.6139 32.3163 46.1537 31.8878C46.6934 31.4593 47.1327 30.9171 47.4405 30.2995C47.7483 29.6819 47.9172 29.0039 47.9351 28.3137C47.9529 27.6234 47.8194 26.9376 47.544 26.3048C47.2686 25.672 46.858 25.1076 46.3411 24.6515C45.8243 24.1955 45.214 23.8589 44.5532 23.6655C44.5532 23.6655 41.3577 21.7798 36.6584 21.5912V21.7798Z" fill="#F5F5DC"/>
</svg>
